<svg width="32" height="32" fill="none" xmlns="http://www.w3.org/2000/svg"><path d="M29.333 22.56v4a2.666 2.666 0 01-2.906 2.667 26.387 26.387 0 01-11.507-4.094 26 26 0 01-8-8 26.387 26.387 0 01-4.093-11.56A2.667 2.667 0 015.48 2.667h4a2.667 2.667 0 012.667 2.293 17.16 17.16 0 00.933 3.747 2.666 2.666 0 01-.6 2.813l-1.693 1.693a21.334 21.334 0 008 8l1.693-1.693a2.666 2.666 0 012.813-.6 17.16 17.16 0 003.747.933 2.666 2.666 0 012.293 2.707z" stroke="#3A3A3A" stroke-width="2" stroke-linecap="round" stroke-linejoin="round"/></svg>